<svg width="989" height="131" viewBox="0 0 989 131" fill="none" xmlns="http://www.w3.org/2000/svg">
<g filter="url(#filter0_i)">
<path d="M0.0640001 100V3.43999H18.832V83.544H68.064V100H0.0640001ZM107.844 101.36C102.132 101.36 96.964 100.408 92.34 98.504C87.716 96.5093 83.772 93.8347 80.508 90.48C77.244 87.1253 74.7053 83.2267 72.892 78.784C71.1693 74.3413 70.308 69.672 70.308 64.776C70.308 59.6987 71.1693 54.9387 72.892 50.496C74.6147 45.9627 77.108 42.0187 80.372 38.664C83.636 35.2187 87.58 32.4987 92.204 30.504C96.9187 28.5093 102.177 27.512 107.98 27.512C113.783 27.512 118.951 28.5093 123.484 30.504C128.108 32.4987 132.007 35.1733 135.18 38.528C138.444 41.8827 140.892 45.7813 142.524 50.224C144.247 54.6667 145.108 59.2907 145.108 64.096C145.108 65.2747 145.063 66.408 144.972 67.496C144.972 68.584 144.881 69.4907 144.7 70.216H89.62C89.892 73.0267 90.572 75.52 91.66 77.696C92.748 79.872 94.1533 81.7307 95.876 83.272C97.5987 84.8133 99.548 85.992 101.724 86.808C103.9 87.624 106.167 88.032 108.524 88.032C112.151 88.032 115.551 87.1707 118.724 85.448C121.988 83.6347 124.209 81.2773 125.388 78.376L141.028 82.728C138.399 88.168 134.183 92.656 128.38 96.192C122.668 99.6373 115.823 101.36 107.844 101.36ZM126.34 58.384C125.887 53.0347 123.892 48.7733 120.356 45.6C116.911 42.336 112.695 40.704 107.708 40.704C105.26 40.704 102.948 41.1573 100.772 42.064C98.6867 42.88 96.828 44.0587 95.196 45.6C93.564 47.1413 92.204 49 91.116 51.176C90.1187 53.352 89.5293 55.7547 89.348 58.384H126.34ZM175.658 101.36C172.213 101.36 168.994 100.816 166.002 99.728C163.01 98.5493 160.426 96.9627 158.25 94.968C156.074 92.8827 154.351 90.48 153.082 87.76C151.903 85.04 151.314 82.048 151.314 78.784C151.314 75.4293 152.039 72.3467 153.49 69.536C155.031 66.6347 157.117 64.1867 159.746 62.192C162.466 60.1973 165.685 58.656 169.402 57.568C173.119 56.3893 177.199 55.8 181.642 55.8C184.815 55.8 187.898 56.072 190.89 56.616C193.973 57.16 196.693 57.9307 199.05 58.928V54.848C199.05 50.1333 197.69 46.5067 194.97 43.968C192.341 41.4293 188.397 40.16 183.138 40.16C179.33 40.16 175.613 40.84 171.986 42.2C168.359 43.56 164.642 45.5547 160.834 48.184L155.258 36.624C164.415 30.5493 174.298 27.512 184.906 27.512C195.151 27.512 203.085 30.0507 208.706 35.128C214.418 40.1147 217.274 47.368 217.274 56.888V79.056C217.274 80.96 217.591 82.32 218.226 83.136C218.951 83.952 220.085 84.4053 221.626 84.496V100C218.543 100.635 215.869 100.952 213.602 100.952C210.157 100.952 207.482 100.181 205.578 98.64C203.765 97.0987 202.631 95.0587 202.178 92.52L201.77 88.576C198.597 92.7467 194.743 95.92 190.21 98.096C185.677 100.272 180.826 101.36 175.658 101.36ZM180.826 88.032C183.909 88.032 186.81 87.488 189.53 86.4C192.341 85.312 194.517 83.8613 196.058 82.048C198.053 80.5067 199.05 78.784 199.05 76.88V68.72C196.874 67.904 194.517 67.2693 191.978 66.816C189.439 66.272 186.991 66 184.634 66C179.919 66 176.066 67.088 173.074 69.264C170.082 71.3493 168.586 74.024 168.586 77.288C168.586 80.3707 169.765 82.9547 172.122 85.04C174.479 87.0347 177.381 88.032 180.826 88.032ZM276.736 44.512C271.205 44.6027 266.264 45.6907 261.912 47.776C257.56 49.7707 254.432 52.808 252.528 56.888V100H234.304V28.736H251.032V43.968C252.301 41.52 253.797 39.344 255.52 37.44C257.242 35.4453 259.101 33.7227 261.096 32.272C263.09 30.8213 265.085 29.7333 267.08 29.008C269.165 28.192 271.16 27.784 273.064 27.784C274.061 27.784 274.786 27.784 275.24 27.784C275.784 27.784 276.282 27.8293 276.736 27.92V44.512ZM353.13 100H334.906V60.016C334.906 54.304 333.908 50.1333 331.914 47.504C329.919 44.8747 327.154 43.56 323.618 43.56C321.804 43.56 319.946 43.9227 318.042 44.648C316.138 45.3733 314.324 46.416 312.602 47.776C310.97 49.0453 309.474 50.5867 308.114 52.4C306.754 54.2133 305.756 56.208 305.122 58.384V100H286.898V28.736H303.354V41.928C305.983 37.3947 309.791 33.8587 314.778 31.32C319.764 28.7813 325.386 27.512 331.642 27.512C336.084 27.512 339.711 28.328 342.522 29.96C345.332 31.592 347.508 33.7227 349.05 36.352C350.591 38.9813 351.634 41.9733 352.178 45.328C352.812 48.6827 353.13 52.0827 353.13 55.528V100ZM368.976 100V28.736H387.2V100H368.976ZM368.976 18.808V0.719997H387.2V18.808H368.976ZM469.872 100H451.648V60.016C451.648 54.304 450.65 50.1333 448.656 47.504C446.661 44.8747 443.896 43.56 440.36 43.56C438.546 43.56 436.688 43.9227 434.784 44.648C432.88 45.3733 431.066 46.416 429.344 47.776C427.712 49.0453 426.216 50.5867 424.856 52.4C423.496 54.2133 422.498 56.208 421.864 58.384V100H403.64V28.736H420.096V41.928C422.725 37.3947 426.533 33.8587 431.52 31.32C436.506 28.7813 442.128 27.512 448.384 27.512C452.826 27.512 456.453 28.328 459.264 29.96C462.074 31.592 464.25 33.7227 465.792 36.352C467.333 38.9813 468.376 41.9733 468.92 45.328C469.554 48.6827 469.872 52.0827 469.872 55.528V100ZM513.598 100.408C508.793 100.408 504.441 99.456 500.542 97.552C496.643 95.648 493.243 93.064 490.342 89.8C487.531 86.4453 485.355 82.592 483.814 78.24C482.273 73.888 481.502 69.264 481.502 64.368C481.502 59.2 482.318 54.3947 483.95 49.952C485.582 45.5093 487.849 41.6107 490.75 38.256C493.651 34.9013 497.142 32.272 501.222 30.368C505.302 28.464 509.79 27.512 514.686 27.512C520.217 27.512 525.067 28.7813 529.238 31.32C533.409 33.768 536.854 37.0773 539.574 41.248V28.736H555.486V96.6C555.486 101.859 554.489 106.573 552.494 110.744C550.499 114.915 547.734 118.451 544.198 121.352C540.753 124.253 536.582 126.475 531.686 128.016C526.881 129.557 521.622 130.328 515.91 130.328C508.113 130.328 501.539 129.013 496.19 126.384C490.931 123.845 486.398 120.219 482.59 115.504L492.518 105.848C495.238 109.203 498.638 111.832 502.718 113.736C506.889 115.64 511.286 116.592 515.91 116.592C518.721 116.592 521.395 116.184 523.934 115.368C526.563 114.643 528.875 113.464 530.87 111.832C532.865 110.2 534.406 108.115 535.494 105.576C536.673 103.037 537.262 100.045 537.262 96.6V87.624C534.905 91.704 531.595 94.8773 527.334 97.144C523.073 99.32 518.494 100.408 513.598 100.408ZM519.718 85.856C521.713 85.856 523.617 85.5387 525.43 84.904C527.243 84.2693 528.921 83.408 530.462 82.32C532.003 81.232 533.363 79.9627 534.542 78.512C535.721 77.0613 536.627 75.52 537.262 73.888V56.888C535.63 52.7173 533.046 49.3627 529.51 46.824C526.065 44.2853 522.438 43.016 518.63 43.016C515.819 43.016 513.281 43.6507 511.014 44.92C508.747 46.0987 506.798 47.7307 505.166 49.816C503.534 51.8107 502.265 54.1227 501.358 56.752C500.542 59.3813 500.134 62.1013 500.134 64.912C500.134 67.8133 500.633 70.5333 501.63 73.072C502.627 75.6107 503.987 77.832 505.71 79.736C507.523 81.64 509.609 83.136 511.966 84.224C514.323 85.312 516.907 85.856 519.718 85.856ZM606.353 100V3.43999H647.289C651.732 3.43999 655.812 4.392 659.529 6.296C663.337 8.10933 666.601 10.5573 669.321 13.64C672.041 16.632 674.172 20.0773 675.713 23.976C677.254 27.784 678.025 31.6373 678.025 35.536C678.025 39.616 677.3 43.6053 675.849 47.504C674.398 51.312 672.358 54.712 669.729 57.704C667.1 60.696 663.926 63.0987 660.209 64.912C656.492 66.7253 652.412 67.632 647.969 67.632H625.121V100H606.353ZM625.121 51.176H646.881C650.326 51.176 653.182 49.7707 655.449 46.96C657.806 44.1493 658.985 40.3413 658.985 35.536C658.985 33.088 658.622 30.912 657.897 29.008C657.172 27.0133 656.22 25.336 655.041 23.976C653.862 22.616 652.457 21.6187 650.825 20.984C649.284 20.2587 647.697 19.896 646.065 19.896H625.121V51.176ZM721.036 101.36C715.233 101.36 710.02 100.363 705.396 98.368C700.772 96.3733 696.828 93.6987 693.564 90.344C690.391 86.8987 687.943 82.9547 686.22 78.512C684.497 74.0693 683.636 69.4 683.636 64.504C683.636 59.5173 684.497 54.8027 686.22 50.36C687.943 45.9173 690.391 42.0187 693.564 38.664C696.828 35.2187 700.772 32.4987 705.396 30.504C710.02 28.5093 715.233 27.512 721.036 27.512C726.839 27.512 732.007 28.5093 736.54 30.504C741.164 32.4987 745.063 35.2187 748.236 38.664C751.5 42.0187 753.993 45.9173 755.716 50.36C757.439 54.8027 758.3 59.5173 758.3 64.504C758.3 69.4 757.439 74.0693 755.716 78.512C753.993 82.9547 751.545 86.8987 748.372 90.344C745.199 93.6987 741.3 96.3733 736.676 98.368C732.052 100.363 726.839 101.36 721.036 101.36ZM702.404 64.504C702.404 67.6773 702.857 70.5787 703.764 73.208C704.761 75.7467 706.076 77.968 707.708 79.872C709.431 81.776 711.425 83.272 713.692 84.36C715.959 85.3573 718.407 85.856 721.036 85.856C723.665 85.856 726.113 85.3573 728.38 84.36C730.647 83.272 732.596 81.776 734.228 79.872C735.951 77.968 737.265 75.7013 738.172 73.072C739.169 70.4427 739.668 67.5413 739.668 64.368C739.668 61.2853 739.169 58.4293 738.172 55.8C737.265 53.1707 735.951 50.904 734.228 49C732.596 47.096 730.647 45.6453 728.38 44.648C726.113 43.56 723.665 43.016 721.036 43.016C718.407 43.016 715.959 43.56 713.692 44.648C711.425 45.736 709.431 47.232 707.708 49.136C706.076 51.04 704.761 53.3067 703.764 55.936C702.857 58.5653 702.404 61.4213 702.404 64.504ZM813.033 44.512C807.502 44.6027 802.561 45.6907 798.209 47.776C793.857 49.7707 790.729 52.808 788.825 56.888V100H770.601V28.736H787.329V43.968C788.598 41.52 790.094 39.344 791.817 37.44C793.539 35.4453 795.398 33.7227 797.393 32.272C799.387 30.8213 801.382 29.7333 803.377 29.008C805.462 28.192 807.457 27.784 809.361 27.784C810.358 27.784 811.083 27.784 811.537 27.784C812.081 27.784 812.579 27.8293 813.033 27.92V44.512ZM865.898 96.328C863.45 97.416 860.458 98.504 856.922 99.592C853.386 100.68 849.669 101.224 845.77 101.224C843.232 101.224 840.829 100.907 838.562 100.272C836.386 99.6373 834.437 98.64 832.714 97.28C831.082 95.8293 829.768 94.016 828.77 91.84C827.773 89.5733 827.274 86.8533 827.274 83.68V42.744H817.89V28.736H827.274V5.616H845.498V28.736H860.458V42.744H845.498V77.56C845.498 80.0987 846.133 81.912 847.402 83C848.762 83.9973 850.394 84.496 852.298 84.496C854.202 84.496 856.061 84.1787 857.874 83.544C859.688 82.9093 861.138 82.3653 862.226 81.912L865.898 96.328ZM894.838 101.36C891.392 101.36 888.174 100.816 885.182 99.728C882.19 98.5493 879.606 96.9627 877.43 94.968C875.254 92.8827 873.531 90.48 872.262 87.76C871.083 85.04 870.494 82.048 870.494 78.784C870.494 75.4293 871.219 72.3467 872.67 69.536C874.211 66.6347 876.296 64.1867 878.926 62.192C881.646 60.1973 884.864 58.656 888.582 57.568C892.299 56.3893 896.379 55.8 900.822 55.8C903.995 55.8 907.078 56.072 910.07 56.616C913.152 57.16 915.872 57.9307 918.23 58.928V54.848C918.23 50.1333 916.87 46.5067 914.15 43.968C911.52 41.4293 907.576 40.16 902.318 40.16C898.51 40.16 894.792 40.84 891.166 42.2C887.539 43.56 883.822 45.5547 880.014 48.184L874.438 36.624C883.595 30.5493 893.478 27.512 904.086 27.512C914.331 27.512 922.264 30.0507 927.886 35.128C933.598 40.1147 936.454 47.368 936.454 56.888V79.056C936.454 80.96 936.771 82.32 937.406 83.136C938.131 83.952 939.264 84.4053 940.806 84.496V100C937.723 100.635 935.048 100.952 932.782 100.952C929.336 100.952 926.662 100.181 924.758 98.64C922.944 97.0987 921.811 95.0587 921.358 92.52L920.95 88.576C917.776 92.7467 913.923 95.92 909.39 98.096C904.856 100.272 900.006 101.36 894.838 101.36ZM900.006 88.032C903.088 88.032 905.99 87.488 908.71 86.4C911.52 85.312 913.696 83.8613 915.238 82.048C917.232 80.5067 918.23 78.784 918.23 76.88V68.72C916.054 67.904 913.696 67.2693 911.158 66.816C908.619 66.272 906.171 66 903.814 66C899.099 66 895.246 67.088 892.254 69.264C889.262 71.3493 887.766 74.024 887.766 77.288C887.766 80.3707 888.944 82.9547 891.302 85.04C893.659 87.0347 896.56 88.032 900.006 88.032ZM953.348 0.719997H971.572V77.152C971.572 79.7813 972.206 81.8213 973.476 83.272C974.745 84.7227 976.558 85.448 978.916 85.448C980.004 85.448 981.182 85.2667 982.452 84.904C983.812 84.5413 985.081 84.088 986.26 83.544L988.708 97.416C986.26 98.5947 983.404 99.5013 980.139 100.136C976.876 100.771 973.929 101.088 971.3 101.088C965.588 101.088 961.145 99.592 957.972 96.6C954.889 93.5173 953.348 89.1653 953.348 83.544V0.719997Z" fill="#F2F2F2"/>
</g>
<defs>
<filter id="filter0_i" x="0.0639648" y="0.719971" width="988.643" height="133.608" filterUnits="userSpaceOnUse" color-interpolation-filters="sRGB">
<feFlood flood-opacity="0" result="BackgroundImageFix"/>
<feBlend mode="normal" in="SourceGraphic" in2="BackgroundImageFix" result="shape"/>
<feColorMatrix in="SourceAlpha" type="matrix" values="0 0 0 0 0 0 0 0 0 0 0 0 0 0 0 0 0 0 127 0" result="hardAlpha"/>
<feOffset dy="4"/>
<feGaussianBlur stdDeviation="2"/>
<feComposite in2="hardAlpha" operator="arithmetic" k2="-1" k3="1"/>
<feColorMatrix type="matrix" values="0 0 0 0 0 0 0 0 0 0 0 0 0 0 0 0 0 0 0.25 0"/>
<feBlend mode="normal" in2="shape" result="effect1_innerShadow"/>
</filter>
</defs>
</svg>
