<?xml version="1.0" standalone="no"?>
<svg version="1.2" xmlns="http://www.w3.org/2000/svg" xmlns:xlink="http://www.w3.org/1999/xlink" overflow="visible" preserveAspectRatio="none" viewBox="0 0 53 49" width="53" height="49"><g transform="translate(0, 0)"><defs><path id="path-1572980079594324" d="M26.500000000000032 0 C41.125748149090974 0 53.000000000000064 10.978081899897001 53.000000000000064 24.500000000000032 C53.000000000000064 38.021918100102965 41.125748149090974 49.000000000000064 26.500000000000032 49.000000000000064 C11.874251850909001 49.000000000000064 0 38.021918100102965 0 24.500000000000032 C0 10.978081899897001 11.874251850909001 0 26.500000000000032 0 Z"/><filter height="153.0612244897959%" id="filter-1572980079956551" width="152.83018867924528%" x="-15.09433962264151%" y="-20.408163265306122%"><feFlood flood-opacity="0" result="backgroundFix"/><feColorMatrix in="SourceAlpha" result="hardAlpha" type="matrix" values="0 0 0 0 0 0 0 0 0 0 0 0 0 0 0 0 0 0 127 0"/><feOffset dx="4" dy="2"/><feGaussianBlur stdDeviation="4.5"/><feColorMatrix in="" result="" type="matrix" values="0 0 0 0 0.3803921568627451  0 0 0 0 0.36470588235294116  0 0 0 0 0.36470588235294116  0 0 0 0.6 0"/><feBlend in2="backgroundFix" mode="normal" result="shadowOuter_1"/></filter></defs><g transform="translate(0, 0)"><use xmlns:xlink="http://www.w3.org/1999/xlink" xlink:href="#path-1572980079594324" filter="url(#filter-1572980079956551)" style="stroke: rgb(140, 140, 140); fill: rgb(0, 48, 130); stroke-linecap: butt; stroke-linejoin: miter; stroke-width: 0;"/><path d="M26.500000000000032 0 C41.125748149090974 0 53.000000000000064 10.978081899897001 53.000000000000064 24.500000000000032 C53.000000000000064 38.021918100102965 41.125748149090974 49.000000000000064 26.500000000000032 49.000000000000064 C11.874251850909001 49.000000000000064 0 38.021918100102965 0 24.500000000000032 C0 10.978081899897001 11.874251850909001 0 26.500000000000032 0 Z" style="stroke-width: 0; stroke: rgb(140, 140, 140); stroke-linecap: butt; stroke-linejoin: miter; fill: rgb(0, 48, 130);"/></g></g></svg>